<?xml version="1.0" encoding="UTF-8" ?>
<svg version="1.1" width="130" height="130" xmlns="http://www.w3.org/2000/svg" shape-rendering="crispEdges">
<rect x="112" y="2" width="2" height="1" fill="#56376E" />
<rect x="8" y="3" width="1" height="2" fill="#56376E" />
<rect x="110" y="3" width="2" height="2" fill="#56376E" />
<rect x="112" y="3" width="2" height="2" fill="#478C9E" />
<rect x="9" y="4" width="3" height="1" fill="#56376E" />
<rect x="109" y="4" width="1" height="3" fill="#56376E" />
<rect x="8" y="5" width="2" height="12" fill="#281D41" />
<rect x="10" y="5" width="2" height="2" fill="#478C9E" />
<rect x="12" y="5" width="2" height="2" fill="#56376E" />
<rect x="108" y="5" width="1" height="2" fill="#56376E" />
<rect x="110" y="5" width="2" height="4" fill="#478C9E" />
<rect x="112" y="5" width="3" height="4" fill="#56376E" />
<rect x="14" y="6" width="2" height="1" fill="#56376E" />
<rect x="107" y="6" width="1" height="3" fill="#56376E" />
<rect x="7" y="7" width="1" height="3" fill="#56376E" />
<rect x="10" y="7" width="2" height="2" fill="#56376E" />
<rect x="12" y="7" width="4" height="2" fill="#478C9E" />
<rect x="16" y="7" width="1" height="2" fill="#56376E" />
<rect x="106" y="7" width="1" height="2" fill="#56376E" />
<rect x="108" y="7" width="2" height="4" fill="#478C9E" />
<rect x="17" y="8" width="3" height="1" fill="#56376E" />
<rect x="74" y="8" width="3" height="1" fill="#56376E" />
<rect x="105" y="8" width="1" height="3" fill="#56376E" />
<rect x="10" y="9" width="2" height="14" fill="#281D41" />
<rect x="12" y="9" width="4" height="4" fill="#56376E" />
<rect x="16" y="9" width="4" height="2" fill="#478C9E" />
<rect x="20" y="9" width="3" height="2" fill="#56376E" />
<rect x="73" y="9" width="1" height="2" fill="#56376E" />
<rect x="74" y="9" width="2" height="2" fill="#478C9E" />
<rect x="76" y="9" width="2" height="6" fill="#56376E" />
<rect x="104" y="9" width="1" height="2" fill="#56376E" />
<rect x="106" y="9" width="2" height="4" fill="#478C9E" />
<rect x="110" y="9" width="2" height="6" fill="#56376E" />
<rect x="112" y="9" width="2" height="22" fill="#281D41" />
<rect x="114" y="9" width="1" height="6" fill="#56376E" />
<rect x="23" y="10" width="2" height="1" fill="#56376E" />
<rect x="71" y="10" width="2" height="1" fill="#56376E" />
<rect x="78" y="10" width="2" height="5" fill="#56376E" />
<rect x="103" y="10" width="1" height="3" fill="#56376E" />
<rect x="16" y="11" width="2" height="8" fill="#56376E" />
<rect x="18" y="11" width="6" height="2" fill="#478C9E" />
<rect x="24" y="11" width="3" height="2" fill="#56376E" />
<rect x="70" y="11" width="2" height="2" fill="#56376E" />
<rect x="72" y="11" width="2" height="2" fill="#478C9E" />
<rect x="74" y="11" width="2" height="6" fill="#56376E" />
<rect x="80" y="11" width="2" height="2" fill="#56376E" />
<rect x="102" y="11" width="1" height="2" fill="#56376E" />
<rect x="104" y="11" width="2" height="4" fill="#478C9E" />
<rect x="108" y="11" width="2" height="8" fill="#56376E" />
<rect x="115" y="11" width="1" height="4" fill="#56376E" />
<rect x="27" y="12" width="2" height="1" fill="#56376E" />
<rect x="69" y="12" width="1" height="3" fill="#56376E" />
<rect x="82" y="12" width="1" height="7" fill="#56376E" />
<rect x="101" y="12" width="1" height="3" fill="#56376E" />
<rect x="12" y="13" width="2" height="16" fill="#281D41" />
<rect x="14" y="13" width="2" height="2" fill="#56376E" />
<rect x="18" y="13" width="2" height="10" fill="#56376E" />
<rect x="20" y="13" width="8" height="2" fill="#478C9E" />
<rect x="28" y="13" width="3" height="2" fill="#56376E" />
<rect x="67" y="13" width="2" height="2" fill="#56376E" />
<rect x="70" y="13" width="2" height="4" fill="#478C9E" />
<rect x="72" y="13" width="2" height="8" fill="#56376E" />
<rect x="80" y="13" width="2" height="2" fill="#478C9E" />
<rect x="83" y="13" width="2" height="4" fill="#56376E" />
<rect x="100" y="13" width="1" height="2" fill="#56376E" />
<rect x="102" y="13" width="2" height="2" fill="#478C9E" />
<rect x="106" y="13" width="2" height="8" fill="#56376E" />
<rect x="31" y="14" width="2" height="1" fill="#56376E" />
<rect x="66" y="14" width="1" height="5" fill="#56376E" />
<rect x="85" y="14" width="7" height="1" fill="#56376E" />
<rect x="99" y="14" width="1" height="5" fill="#56376E" />
<rect x="14" y="15" width="2" height="115" fill="#281D41" />
<rect x="20" y="15" width="4" height="10" fill="#56376E" />
<rect x="24" y="15" width="8" height="2" fill="#478C9E" />
<rect x="32" y="15" width="2" height="2" fill="#56376E" />
<rect x="64" y="15" width="2" height="2" fill="#56376E" />
<rect x="67" y="15" width="1" height="4" fill="#56376E" />
<rect x="68" y="15" width="2" height="6" fill="#478C9E" />
<rect x="76" y="15" width="4" height="2" fill="#478C9E" />
<rect x="80" y="15" width="2" height="8" fill="#56376E" />
<rect x="85" y="15" width="1" height="2" fill="#56376E" />
<rect x="86" y="15" width="4" height="2" fill="#478C9E" />
<rect x="90" y="15" width="5" height="2" fill="#56376E" />
<rect x="97" y="15" width="2" height="2" fill="#56376E" />
<rect x="100" y="15" width="2" height="2" fill="#478C9E" />
<rect x="102" y="15" width="4" height="6" fill="#56376E" />
<rect x="110" y="15" width="2" height="18" fill="#281D41" />
<rect x="114" y="15" width="2" height="12" fill="#281D41" />
<rect x="116" y="15" width="1" height="8" fill="#56376E" />
<rect x="34" y="16" width="3" height="1" fill="#56376E" />
<rect x="60" y="16" width="4" height="1" fill="#56376E" />
<rect x="95" y="16" width="2" height="1" fill="#56376E" />
<rect x="8" y="17" width="2" height="1" fill="#56376E" />
<rect x="24" y="17" width="2" height="2" fill="#56376E" />
<rect x="26" y="17" width="10" height="2" fill="#478C9E" />
<rect x="36" y="17" width="3" height="2" fill="#56376E" />
<rect x="52" y="17" width="10" height="2" fill="#56376E" />
<rect x="62" y="17" width="4" height="4" fill="#478C9E" />
<rect x="70" y="17" width="2" height="8" fill="#56376E" />
<rect x="74" y="17" width="4" height="2" fill="#478C9E" />
<rect x="78" y="17" width="2" height="4" fill="#56376E" />
<rect x="83" y="17" width="1" height="2" fill="#56376E" />
<rect x="84" y="17" width="2" height="2" fill="#478C9E" />
<rect x="86" y="17" width="2" height="6" fill="#56376E" />
<rect x="88" y="17" width="10" height="2" fill="#281D41" />
<rect x="98" y="17" width="1" height="2" fill="#56376E" />
<rect x="100" y="17" width="2" height="2" fill="#56376E" />
<rect x="9" y="18" width="1" height="4" fill="#56376E" />
<rect x="39" y="18" width="13" height="1" fill="#56376E" />
<rect x="16" y="19" width="2" height="111" fill="#281D41" />
<rect x="24" y="19" width="4" height="2" fill="#478C9E" />
<rect x="28" y="19" width="2" height="12" fill="#56376E" />
<rect x="30" y="19" width="10" height="2" fill="#478C9E" />
<rect x="40" y="19" width="4" height="2" fill="#56376E" />
<rect x="44" y="19" width="10" height="2" fill="#281D41" />
<rect x="54" y="19" width="4" height="6" fill="#56376E" />
<rect x="58" y="19" width="4" height="2" fill="#478C9E" />
<rect x="66" y="19" width="2" height="2" fill="#478C9E" />
<rect x="74" y="19" width="4" height="2" fill="#56376E" />
<rect x="82" y="19" width="2" height="2" fill="#478C9E" />
<rect x="84" y="19" width="2" height="6" fill="#56376E" />
<rect x="88" y="19" width="2" height="2" fill="#56376E" />
<rect x="90" y="19" width="4" height="4" fill="#478C9E" />
<rect x="94" y="19" width="4" height="2" fill="#56376E" />
<rect x="98" y="19" width="4" height="2" fill="#281D41" />
<rect x="108" y="19" width="2" height="22" fill="#281D41" />
<rect x="24" y="21" width="4" height="8" fill="#56376E" />
<rect x="30" y="21" width="8" height="2" fill="#478C9E" />
<rect x="38" y="21" width="2" height="2" fill="#56376E" />
<rect x="40" y="21" width="8" height="2" fill="#281D41" />
<rect x="48" y="21" width="6" height="4" fill="#56376E" />
<rect x="58" y="21" width="12" height="2" fill="#56376E" />
<rect x="72" y="21" width="2" height="2" fill="#281D41" />
<rect x="74" y="21" width="2" height="2" fill="#56376E" />
<rect x="76" y="21" width="4" height="2" fill="#478C9E" />
<rect x="82" y="21" width="2" height="4" fill="#56376E" />
<rect x="88" y="21" width="2" height="4" fill="#478C9E" />
<rect x="94" y="21" width="2" height="2" fill="#478C9E" />
<rect x="96" y="21" width="4" height="2" fill="#56376E" />
<rect x="100" y="21" width="8" height="2" fill="#281D41" />
<rect x="11" y="23" width="1" height="1" fill="#56376E" />
<rect x="18" y="23" width="2" height="107" fill="#281D41" />
<rect x="30" y="23" width="2" height="8" fill="#56376E" />
<rect x="32" y="23" width="2" height="2" fill="#478C9E" />
<rect x="34" y="23" width="4" height="4" fill="#56376E" />
<rect x="38" y="23" width="6" height="4" fill="#281D41" />
<rect x="44" y="23" width="4" height="4" fill="#56376E" />
<rect x="58" y="23" width="2" height="4" fill="#56376E" />
<rect x="60" y="23" width="8" height="2" fill="#478C9E" />
<rect x="68" y="23" width="2" height="2" fill="#56376E" />
<rect x="72" y="23" width="2" height="2" fill="#56376E" />
<rect x="74" y="23" width="4" height="2" fill="#281D41" />
<rect x="78" y="23" width="2" height="2" fill="#56376E" />
<rect x="80" y="23" width="2" height="2" fill="#478C9E" />
<rect x="86" y="23" width="2" height="2" fill="#478C9E" />
<rect x="90" y="23" width="2" height="2" fill="#56376E" />
<rect x="92" y="23" width="2" height="4" fill="#281D41" />
<rect x="94" y="23" width="2" height="2" fill="#56376E" />
<rect x="96" y="23" width="4" height="2" fill="#478C9E" />
<rect x="100" y="23" width="6" height="2" fill="#56376E" />
<rect x="106" y="23" width="2" height="2" fill="#281D41" />
<rect x="20" y="25" width="2" height="105" fill="#281D41" />
<rect x="22" y="25" width="2" height="2" fill="#56376E" />
<rect x="32" y="25" width="2" height="6" fill="#56376E" />
<rect x="48" y="25" width="8" height="4" fill="#281D41" />
<rect x="56" y="25" width="2" height="2" fill="#56376E" />
<rect x="60" y="25" width="4" height="2" fill="#56376E" />
<rect x="64" y="25" width="10" height="2" fill="#478C9E" />
<rect x="74" y="25" width="2" height="2" fill="#56376E" />
<rect x="76" y="25" width="4" height="2" fill="#281D41" />
<rect x="80" y="25" width="2" height="2" fill="#56376E" />
<rect x="82" y="25" width="2" height="2" fill="#478C9E" />
<rect x="84" y="25" width="2" height="2" fill="#281D41" />
<rect x="86" y="25" width="4" height="2" fill="#56376E" />
<rect x="90" y="25" width="2" height="2" fill="#478C9E" />
<rect x="94" y="25" width="4" height="2" fill="#478C9E" />
<rect x="98" y="25" width="2" height="2" fill="#56376E" />
<rect x="100" y="25" width="6" height="4" fill="#281D41" />
<rect x="106" y="25" width="2" height="2" fill="#56376E" />
<rect x="11" y="27" width="1" height="2" fill="#56376E" />
<rect x="22" y="27" width="2" height="103" fill="#281D41" />
<rect x="34" y="27" width="2" height="2" fill="#56376E" />
<rect x="36" y="27" width="6" height="8" fill="#281D41" />
<rect x="42" y="27" width="2" height="2" fill="#56376E" />
<rect x="44" y="27" width="4" height="8" fill="#281D41" />
<rect x="56" y="27" width="6" height="2" fill="#281D41" />
<rect x="62" y="27" width="8" height="2" fill="#56376E" />
<rect x="70" y="27" width="8" height="2" fill="#478C9E" />
<rect x="78" y="27" width="2" height="4" fill="#56376E" />
<rect x="80" y="27" width="2" height="8" fill="#281D41" />
<rect x="82" y="27" width="2" height="4" fill="#56376E" />
<rect x="84" y="27" width="2" height="2" fill="#478C9E" />
<rect x="86" y="27" width="2" height="6" fill="#281D41" />
<rect x="88" y="27" width="2" height="2" fill="#478C9E" />
<rect x="90" y="27" width="2" height="8" fill="#281D41" />
<rect x="92" y="27" width="4" height="2" fill="#56376E" />
<rect x="96" y="27" width="4" height="2" fill="#281D41" />
<rect x="106" y="27" width="2" height="12" fill="#281D41" />
<rect x="114" y="27" width="2" height="2" fill="#56376E" />
<rect x="129" y="28" width="1" height="1" fill="#56376E" />
<rect x="12" y="29" width="2" height="2" fill="#56376E" />
<rect x="24" y="29" width="4" height="101" fill="#281D41" />
<rect x="34" y="29" width="2" height="8" fill="#281D41" />
<rect x="42" y="29" width="2" height="6" fill="#281D41" />
<rect x="48" y="29" width="2" height="2" fill="#281D41" />
<rect x="50" y="29" width="10" height="2" fill="#E1A569" />
<rect x="60" y="29" width="6" height="2" fill="#281D41" />
<rect x="66" y="29" width="12" height="2" fill="#56376E" />
<rect x="84" y="29" width="2" height="2" fill="#56376E" />
<rect x="88" y="29" width="2" height="2" fill="#56376E" />
<rect x="92" y="29" width="2" height="2" fill="#56376E" />
<rect x="94" y="29" width="4" height="2" fill="#281D41" />
<rect x="98" y="29" width="2" height="4" fill="#E1A569" />
<rect x="100" y="29" width="2" height="4" fill="#FFE47B" />
<rect x="102" y="29" width="2" height="4" fill="#E1A569" />
<rect x="104" y="29" width="2" height="2" fill="#281D41" />
<rect x="114" y="29" width="1" height="2" fill="#56376E" />
<rect x="127" y="29" width="1" height="2" fill="#56376E" />
<rect x="128" y="29" width="2" height="8" fill="#478C9E" />
<rect x="11" y="30" width="1" height="3" fill="#56376E" />
<rect x="125" y="30" width="2" height="1" fill="#56376E" />
<rect x="12" y="31" width="2" height="99" fill="#281D41" />
<rect x="28" y="31" width="6" height="8" fill="#281D41" />
<rect x="48" y="31" width="4" height="4" fill="#E1A569" />
<rect x="52" y="31" width="6" height="2" fill="#FFE47B" />
<rect x="58" y="31" width="4" height="4" fill="#E1A569" />
<rect x="62" y="31" width="18" height="2" fill="#281D41" />
<rect x="82" y="31" width="4" height="2" fill="#281D41" />
<rect x="88" y="31" width="2" height="2" fill="#281D41" />
<rect x="92" y="31" width="4" height="2" fill="#281D41" />
<rect x="96" y="31" width="2" height="2" fill="#E1A569" />
<rect x="104" y="31" width="2" height="2" fill="#E1A569" />
<rect x="112" y="31" width="2" height="1" fill="#56376E" />
<rect x="123" y="31" width="1" height="2" fill="#56376E" />
<rect x="124" y="31" width="4" height="6" fill="#478C9E" />
<rect x="5" y="32" width="1" height="4" fill="#56376E" />
<rect x="10" y="32" width="1" height="1" fill="#56376E" />
<rect x="112" y="32" width="1" height="1" fill="#56376E" />
<rect x="120" y="32" width="3" height="1" fill="#56376E" />
<rect x="6" y="33" width="6" height="2" fill="#281D41" />
<rect x="52" y="33" width="2" height="4" fill="#E1A569" />
<rect x="54" y="33" width="4" height="2" fill="#FFE47B" />
<rect x="62" y="33" width="2" height="2" fill="#E1A569" />
<rect x="64" y="33" width="6" height="2" fill="#281D41" />
<rect x="70" y="33" width="2" height="6" fill="#56376E" />
<rect x="72" y="33" width="4" height="2" fill="#478C9E" />
<rect x="76" y="33" width="2" height="2" fill="#56376E" />
<rect x="78" y="33" width="2" height="2" fill="#281D41" />
<rect x="82" y="33" width="2" height="2" fill="#56376E" />
<rect x="84" y="33" width="4" height="2" fill="#478C9E" />
<rect x="88" y="33" width="2" height="2" fill="#56376E" />
<rect x="92" y="33" width="2" height="2" fill="#56376E" />
<rect x="94" y="33" width="2" height="2" fill="#478C9E" />
<rect x="96" y="33" width="10" height="2" fill="#281D41" />
<rect x="110" y="33" width="2" height="2" fill="#56376E" />
<rect x="118" y="33" width="2" height="2" fill="#56376E" />
<rect x="120" y="33" width="4" height="4" fill="#478C9E" />
<rect x="112" y="34" width="1" height="1" fill="#56376E" />
<rect x="115" y="34" width="3" height="1" fill="#56376E" />
<rect x="6" y="35" width="2" height="2" fill="#56376E" />
<rect x="8" y="35" width="4" height="95" fill="#281D41" />
<rect x="36" y="35" width="2" height="2" fill="#281D41" />
<rect x="38" y="35" width="8" height="2" fill="#56376E" />
<rect x="46" y="35" width="4" height="2" fill="#281D41" />
<rect x="50" y="35" width="2" height="2" fill="#E1A569" />
<rect x="54" y="35" width="12" height="2" fill="#281D41" />
<rect x="66" y="35" width="4" height="2" fill="#56376E" />
<rect x="72" y="35" width="4" height="6" fill="#56376E" />
<rect x="76" y="35" width="4" height="2" fill="#478C9E" />
<rect x="80" y="35" width="2" height="4" fill="#56376E" />
<rect x="82" y="35" width="4" height="2" fill="#281D41" />
<rect x="86" y="35" width="4" height="2" fill="#478C9E" />
<rect x="90" y="35" width="2" height="2" fill="#56376E" />
<rect x="92" y="35" width="2" height="2" fill="#281D41" />
<rect x="94" y="35" width="2" height="2" fill="#56376E" />
<rect x="96" y="35" width="4" height="2" fill="#478C9E" />
<rect x="100" y="35" width="2" height="2" fill="#56376E" />
<rect x="102" y="35" width="4" height="2" fill="#281D41" />
<rect x="110" y="35" width="4" height="4" fill="#281D41" />
<rect x="114" y="35" width="2" height="2" fill="#56376E" />
<rect x="116" y="35" width="4" height="4" fill="#478C9E" />
<rect x="4" y="37" width="2" height="2" fill="#56376E" />
<rect x="6" y="37" width="2" height="16" fill="#281D41" />
<rect x="34" y="37" width="4" height="2" fill="#56376E" />
<rect x="38" y="37" width="6" height="2" fill="#478C9E" />
<rect x="44" y="37" width="4" height="2" fill="#56376E" />
<rect x="48" y="37" width="6" height="2" fill="#281D41" />
<rect x="54" y="37" width="4" height="2" fill="#56376E" />
<rect x="58" y="37" width="6" height="2" fill="#281D41" />
<rect x="64" y="37" width="2" height="4" fill="#56376E" />
<rect x="66" y="37" width="4" height="2" fill="#478C9E" />
<rect x="76" y="37" width="4" height="2" fill="#281D41" />
<rect x="82" y="37" width="8" height="2" fill="#56376E" />
<rect x="90" y="37" width="6" height="2" fill="#478C9E" />
<rect x="96" y="37" width="2" height="4" fill="#56376E" />
<rect x="98" y="37" width="4" height="2" fill="#478C9E" />
<rect x="102" y="37" width="4" height="2" fill="#56376E" />
<rect x="114" y="37" width="2" height="8" fill="#281D41" />
<rect x="120" y="37" width="2" height="2" fill="#478C9E" />
<rect x="122" y="37" width="8" height="8" fill="#56376E" />
<rect x="0" y="38" width="4" height="1" fill="#56376E" />
<rect x="0" y="39" width="6" height="12" fill="#281D41" />
<rect x="28" y="39" width="4" height="2" fill="#281D41" />
<rect x="32" y="39" width="4" height="6" fill="#56376E" />
<rect x="36" y="39" width="2" height="2" fill="#478C9E" />
<rect x="38" y="39" width="8" height="2" fill="#56376E" />
<rect x="46" y="39" width="4" height="2" fill="#281D41" />
<rect x="50" y="39" width="6" height="2" fill="#56376E" />
<rect x="56" y="39" width="6" height="2" fill="#281D41" />
<rect x="62" y="39" width="2" height="2" fill="#56376E" />
<rect x="66" y="39" width="4" height="6" fill="#56376E" />
<rect x="70" y="39" width="2" height="2" fill="#478C9E" />
<rect x="76" y="39" width="4" height="2" fill="#56376E" />
<rect x="80" y="39" width="14" height="2" fill="#281D41" />
<rect x="94" y="39" width="2" height="2" fill="#56376E" />
<rect x="98" y="39" width="4" height="2" fill="#56376E" />
<rect x="102" y="39" width="4" height="4" fill="#281D41" />
<rect x="106" y="39" width="2" height="2" fill="#56376E" />
<rect x="110" y="39" width="2" height="4" fill="#56376E" />
<rect x="112" y="39" width="2" height="2" fill="#281D41" />
<rect x="116" y="39" width="2" height="91" fill="#281D41" />
<rect x="118" y="39" width="4" height="2" fill="#56376E" />
<rect x="28" y="41" width="2" height="8" fill="#56376E" />
<rect x="30" y="41" width="2" height="2" fill="#281D41" />
<rect x="36" y="41" width="4" height="2" fill="#56376E" />
<rect x="40" y="41" width="2" height="4" fill="#281D41" />
<rect x="42" y="41" width="2" height="2" fill="#56376E" />
<rect x="44" y="41" width="4" height="4" fill="#281D41" />
<rect x="48" y="41" width="6" height="2" fill="#56376E" />
<rect x="54" y="41" width="4" height="2" fill="#281D41" />
<rect x="58" y="41" width="4" height="2" fill="#56376E" />
<rect x="62" y="41" width="4" height="2" fill="#281D41" />
<rect x="70" y="41" width="4" height="4" fill="#56376E" />
<rect x="74" y="41" width="4" height="2" fill="#281D41" />
<rect x="78" y="41" width="2" height="8" fill="#56376E" />
<rect x="80" y="41" width="4" height="2" fill="#281D41" />
<rect x="84" y="41" width="4" height="8" fill="#56376E" />
<rect x="88" y="41" width="10" height="4" fill="#281D41" />
<rect x="98" y="41" width="2" height="2" fill="#56376E" />
<rect x="100" y="41" width="2" height="10" fill="#281D41" />
<rect x="106" y="41" width="2" height="4" fill="#281D41" />
<rect x="108" y="41" width="2" height="6" fill="#56376E" />
<rect x="112" y="41" width="2" height="4" fill="#56376E" />
<rect x="118" y="41" width="2" height="89" fill="#281D41" />
<rect x="120" y="41" width="2" height="2" fill="#56376E" />
<rect x="30" y="43" width="2" height="2" fill="#56376E" />
<rect x="36" y="43" width="2" height="2" fill="#281D41" />
<rect x="38" y="43" width="2" height="2" fill="#56376E" />
<rect x="42" y="43" width="2" height="4" fill="#281D41" />
<rect x="48" y="43" width="8" height="2" fill="#281D41" />
<rect x="56" y="43" width="2" height="2" fill="#56376E" />
<rect x="58" y="43" width="4" height="2" fill="#281D41" />
<rect x="62" y="43" width="4" height="2" fill="#56376E" />
<rect x="74" y="43" width="4" height="6" fill="#56376E" />
<rect x="80" y="43" width="2" height="6" fill="#56376E" />
<rect x="82" y="43" width="2" height="2" fill="#281D41" />
<rect x="98" y="43" width="2" height="8" fill="#281D41" />
<rect x="102" y="43" width="2" height="4" fill="#281D41" />
<rect x="104" y="43" width="2" height="6" fill="#56376E" />
<rect x="110" y="43" width="2" height="2" fill="#281D41" />
<rect x="120" y="43" width="2" height="87" fill="#281D41" />
<rect x="30" y="45" width="2" height="2" fill="#281D41" />
<rect x="32" y="45" width="2" height="2" fill="#56376E" />
<rect x="34" y="45" width="2" height="4" fill="#281D41" />
<rect x="36" y="45" width="2" height="4" fill="#56376E" />
<rect x="38" y="45" width="2" height="4" fill="#281D41" />
<rect x="40" y="45" width="2" height="2" fill="#56376E" />
<rect x="44" y="45" width="2" height="8" fill="#281D41" />
<rect x="46" y="45" width="2" height="4" fill="#56376E" />
<rect x="48" y="45" width="2" height="4" fill="#281D41" />
<rect x="50" y="45" width="2" height="2" fill="#56376E" />
<rect x="52" y="45" width="6" height="2" fill="#281D41" />
<rect x="58" y="45" width="4" height="4" fill="#56376E" />
<rect x="62" y="45" width="6" height="2" fill="#281D41" />
<rect x="68" y="45" width="2" height="4" fill="#56376E" />
<rect x="70" y="45" width="4" height="2" fill="#281D41" />
<rect x="82" y="45" width="2" height="4" fill="#56376E" />
<rect x="88" y="45" width="2" height="4" fill="#56376E" />
<rect x="90" y="45" width="8" height="2" fill="#281D41" />
<rect x="106" y="45" width="2" height="6" fill="#56376E" />
<rect x="110" y="45" width="2" height="4" fill="#56376E" />
<rect x="112" y="45" width="2" height="4" fill="#281D41" />
<rect x="114" y="45" width="2" height="4" fill="#56376E" />
<rect x="122" y="45" width="4" height="85" fill="#281D41" />
<rect x="126" y="45" width="4" height="2" fill="#56376E" />
<rect x="30" y="47" width="2" height="4" fill="#56376E" />
<rect x="32" y="47" width="2" height="83" fill="#281D41" />
<rect x="40" y="47" width="2" height="83" fill="#281D41" />
<rect x="42" y="47" width="2" height="4" fill="#56376E" />
<rect x="50" y="47" width="2" height="2" fill="#281D41" />
<rect x="52" y="47" width="6" height="4" fill="#56376E" />
<rect x="62" y="47" width="6" height="2" fill="#56376E" />
<rect x="70" y="47" width="4" height="2" fill="#56376E" />
<rect x="90" y="47" width="4" height="2" fill="#56376E" />
<rect x="94" y="47" width="4" height="4" fill="#281D41" />
<rect x="102" y="47" width="2" height="2" fill="#56376E" />
<rect x="108" y="47" width="2" height="2" fill="#281D41" />
<rect x="126" y="47" width="4" height="83" fill="#281D41" />
<rect x="28" y="49" width="2" height="81" fill="#281D41" />
<rect x="34" y="49" width="2" height="4" fill="#56376E" />
<rect x="36" y="49" width="2" height="81" fill="#281D41" />
<rect x="38" y="49" width="2" height="6" fill="#56376E" />
<rect x="46" y="49" width="2" height="2" fill="#281D41" />
<rect x="48" y="49" width="4" height="4" fill="#56376E" />
<rect x="58" y="49" width="36" height="2" fill="#281D41" />
<rect x="102" y="49" width="4" height="4" fill="#281D41" />
<rect x="108" y="49" width="2" height="6" fill="#56376E" />
<rect x="110" y="49" width="2" height="81" fill="#281D41" />
<rect x="112" y="49" width="2" height="4" fill="#56376E" />
<rect x="114" y="49" width="2" height="81" fill="#281D41" />
<rect x="0" y="51" width="6" height="4" fill="#56376E" />
<rect x="30" y="51" width="2" height="79" fill="#281D41" />
<rect x="42" y="51" width="2" height="6" fill="#281D41" />
<rect x="46" y="51" width="2" height="4" fill="#56376E" />
<rect x="52" y="51" width="2" height="2" fill="#56376E" />
<rect x="54" y="51" width="10" height="2" fill="#281D41" />
<rect x="64" y="51" width="4" height="2" fill="#D4637C" />
<rect x="68" y="51" width="2" height="12" fill="#DFDFAB" />
<rect x="70" y="51" width="2" height="2" fill="#D4637C" />
<rect x="72" y="51" width="4" height="4" fill="#DFDFAB" />
<rect x="76" y="51" width="2" height="2" fill="#D4637C" />
<rect x="78" y="51" width="4" height="4" fill="#DFDFAB" />
<rect x="82" y="51" width="2" height="2" fill="#D4637C" />
<rect x="84" y="51" width="12" height="2" fill="#DFDFAB" />
<rect x="96" y="51" width="2" height="2" fill="#D4637C" />
<rect x="98" y="51" width="2" height="6" fill="#DFDFAB" />
<rect x="100" y="51" width="2" height="4" fill="#D4637C" />
<rect x="106" y="51" width="2" height="79" fill="#281D41" />
<rect x="6" y="53" width="2" height="2" fill="#56376E" />
<rect x="34" y="53" width="2" height="77" fill="#281D41" />
<rect x="44" y="53" width="2" height="4" fill="#56376E" />
<rect x="48" y="53" width="2" height="2" fill="#56376E" />
<rect x="50" y="53" width="8" height="2" fill="#281D41" />
<rect x="58" y="53" width="2" height="2" fill="#D4637C" />
<rect x="60" y="53" width="4" height="4" fill="#DFDFAB" />
<rect x="64" y="53" width="2" height="2" fill="#D4637C" />
<rect x="66" y="53" width="2" height="6" fill="#DFDFAB" />
<rect x="70" y="53" width="2" height="22" fill="#281D41" />
<rect x="76" y="53" width="2" height="24" fill="#281D41" />
<rect x="82" y="53" width="2" height="36" fill="#281D41" />
<rect x="84" y="53" width="2" height="2" fill="#D4637C" />
<rect x="86" y="53" width="4" height="2" fill="#DFDFAB" />
<rect x="90" y="53" width="2" height="2" fill="#D4637C" />
<rect x="92" y="53" width="4" height="2" fill="#DFDFAB" />
<rect x="96" y="53" width="2" height="6" fill="#281D41" />
<rect x="102" y="53" width="2" height="2" fill="#D4637C" />
<rect x="104" y="53" width="2" height="77" fill="#281D41" />
<rect x="112" y="53" width="2" height="77" fill="#281D41" />
<rect x="0" y="55" width="8" height="75" fill="#281D41" />
<rect x="38" y="55" width="2" height="75" fill="#281D41" />
<rect x="46" y="55" width="8" height="2" fill="#281D41" />
<rect x="54" y="55" width="2" height="2" fill="#D4637C" />
<rect x="56" y="55" width="2" height="4" fill="#DFDFAB" />
<rect x="58" y="55" width="2" height="20" fill="#281D41" />
<rect x="64" y="55" width="2" height="24" fill="#281D41" />
<rect x="72" y="55" width="2" height="2" fill="#281D41" />
<rect x="74" y="55" width="2" height="2" fill="#DFDFAB" />
<rect x="78" y="55" width="4" height="2" fill="#56376E" />
<rect x="84" y="55" width="2" height="38" fill="#281D41" />
<rect x="86" y="55" width="2" height="4" fill="#56376E" />
<rect x="88" y="55" width="4" height="2" fill="#281D41" />
<rect x="92" y="55" width="2" height="8" fill="#56376E" />
<rect x="94" y="55" width="2" height="6" fill="#281D41" />
<rect x="100" y="55" width="2" height="4" fill="#281D41" />
<rect x="102" y="55" width="2" height="4" fill="#DFDFAB" />
<rect x="108" y="55" width="2" height="75" fill="#281D41" />
<rect x="42" y="57" width="2" height="4" fill="#56376E" />
<rect x="44" y="57" width="8" height="2" fill="#281D41" />
<rect x="52" y="57" width="2" height="2" fill="#D4637C" />
<rect x="54" y="57" width="2" height="4" fill="#DFDFAB" />
<rect x="60" y="57" width="2" height="2" fill="#D4637C" />
<rect x="62" y="57" width="2" height="2" fill="#DFDFAB" />
<rect x="72" y="57" width="2" height="14" fill="#56376E" />
<rect x="74" y="57" width="2" height="2" fill="#281D41" />
<rect x="78" y="57" width="2" height="6" fill="#56376E" />
<rect x="80" y="57" width="2" height="22" fill="#281D41" />
<rect x="88" y="57" width="2" height="30" fill="#281D41" />
<rect x="90" y="57" width="2" height="12" fill="#56376E" />
<rect x="98" y="57" width="2" height="2" fill="#D4637C" />
<rect x="44" y="59" width="6" height="2" fill="#281D41" />
<rect x="50" y="59" width="2" height="2" fill="#D4637C" />
<rect x="52" y="59" width="2" height="16" fill="#281D41" />
<rect x="56" y="59" width="2" height="2" fill="#D4637C" />
<rect x="60" y="59" width="2" height="18" fill="#281D41" />
<rect x="62" y="59" width="2" height="2" fill="#D4637C" />
<rect x="66" y="59" width="2" height="2" fill="#D4637C" />
<rect x="74" y="59" width="2" height="2" fill="#56376E" />
<rect x="86" y="59" width="2" height="46" fill="#281D41" />
<rect x="96" y="59" width="2" height="2" fill="#D4637C" />
<rect x="98" y="59" width="2" height="2" fill="#281D41" />
<rect x="100" y="59" width="2" height="4" fill="#DFDFAB" />
<rect x="102" y="59" width="2" height="2" fill="#D4637C" />
<rect x="42" y="61" width="6" height="4" fill="#281D41" />
<rect x="48" y="61" width="2" height="2" fill="#D4637C" />
<rect x="50" y="61" width="2" height="6" fill="#DFDFAB" />
<rect x="54" y="61" width="2" height="2" fill="#D4637C" />
<rect x="56" y="61" width="2" height="2" fill="#281D41" />
<rect x="62" y="61" width="2" height="16" fill="#281D41" />
<rect x="66" y="61" width="2" height="18" fill="#281D41" />
<rect x="74" y="61" width="2" height="14" fill="#281D41" />
<rect x="94" y="61" width="2" height="4" fill="#D4637C" />
<rect x="96" y="61" width="2" height="4" fill="#DFDFAB" />
<rect x="98" y="61" width="2" height="2" fill="#D4637C" />
<rect x="102" y="61" width="2" height="69" fill="#281D41" />
<rect x="48" y="63" width="2" height="2" fill="#DFDFAB" />
<rect x="54" y="63" width="2" height="12" fill="#281D41" />
<rect x="56" y="63" width="2" height="4" fill="#56376E" />
<rect x="68" y="63" width="2" height="2" fill="#D4637C" />
<rect x="78" y="63" width="2" height="14" fill="#281D41" />
<rect x="92" y="63" width="2" height="26" fill="#281D41" />
<rect x="98" y="63" width="2" height="36" fill="#281D41" />
<rect x="100" y="63" width="2" height="2" fill="#D4637C" />
<rect x="42" y="65" width="4" height="2" fill="#281D41" />
<rect x="46" y="65" width="2" height="2" fill="#D4637C" />
<rect x="48" y="65" width="2" height="12" fill="#281D41" />
<rect x="68" y="65" width="2" height="10" fill="#281D41" />
<rect x="94" y="65" width="2" height="26" fill="#281D41" />
<rect x="96" y="65" width="2" height="2" fill="#D4637C" />
<rect x="100" y="65" width="2" height="65" fill="#281D41" />
<rect x="42" y="67" width="2" height="63" fill="#281D41" />
<rect x="44" y="67" width="2" height="4" fill="#D4637C" />
<rect x="46" y="67" width="2" height="4" fill="#DFDFAB" />
<rect x="50" y="67" width="2" height="8" fill="#281D41" />
<rect x="56" y="67" width="2" height="2" fill="#281D41" />
<rect x="96" y="67" width="2" height="28" fill="#281D41" />
<rect x="56" y="69" width="2" height="2" fill="#56376E" />
<rect x="90" y="69" width="2" height="2" fill="#281D41" />
<rect x="44" y="71" width="2" height="59" fill="#281D41" />
<rect x="46" y="71" width="2" height="2" fill="#D4637C" />
<rect x="56" y="71" width="2" height="4" fill="#281D41" />
<rect x="72" y="71" width="2" height="4" fill="#281D41" />
<rect x="90" y="71" width="2" height="2" fill="#56376E" />
<rect x="46" y="73" width="2" height="18" fill="#281D41" />
<rect x="90" y="73" width="2" height="2" fill="#478C9E" />
<rect x="50" y="75" width="10" height="4" fill="#56376E" />
<rect x="68" y="75" width="8" height="2" fill="#56376E" />
<rect x="90" y="75" width="2" height="22" fill="#281D41" />
<rect x="48" y="77" width="2" height="6" fill="#56376E" />
<rect x="60" y="77" width="4" height="4" fill="#56376E" />
<rect x="68" y="77" width="2" height="4" fill="#281D41" />
<rect x="70" y="77" width="10" height="2" fill="#56376E" />
<rect x="50" y="79" width="8" height="2" fill="#56376E" />
<rect x="58" y="79" width="2" height="2" fill="#478C9E" />
<rect x="64" y="79" width="4" height="4" fill="#56376E" />
<rect x="70" y="79" width="2" height="4" fill="#281D41" />
<rect x="72" y="79" width="2" height="2" fill="#56376E" />
<rect x="74" y="79" width="2" height="2" fill="#478C9E" />
<rect x="76" y="79" width="6" height="2" fill="#56376E" />
<rect x="50" y="81" width="6" height="16" fill="#281D41" />
<rect x="56" y="81" width="6" height="2" fill="#56376E" />
<rect x="62" y="81" width="2" height="2" fill="#478C9E" />
<rect x="68" y="81" width="2" height="4" fill="#56376E" />
<rect x="72" y="81" width="2" height="2" fill="#281D41" />
<rect x="74" y="81" width="2" height="4" fill="#56376E" />
<rect x="76" y="81" width="2" height="2" fill="#478C9E" />
<rect x="78" y="81" width="4" height="2" fill="#56376E" />
<rect x="48" y="83" width="2" height="6" fill="#281D41" />
<rect x="56" y="83" width="4" height="12" fill="#281D41" />
<rect x="60" y="83" width="4" height="2" fill="#56376E" />
<rect x="64" y="83" width="4" height="2" fill="#478C9E" />
<rect x="70" y="83" width="4" height="8" fill="#D4637C" />
<rect x="76" y="83" width="4" height="2" fill="#D4637C" />
<rect x="80" y="83" width="2" height="2" fill="#56376E" />
<rect x="60" y="85" width="2" height="22" fill="#281D41" />
<rect x="62" y="85" width="4" height="2" fill="#56376E" />
<rect x="66" y="85" width="2" height="2" fill="#478C9E" />
<rect x="68" y="85" width="2" height="4" fill="#D4637C" />
<rect x="74" y="85" width="2" height="8" fill="#D4637C" />
<rect x="76" y="85" width="2" height="2" fill="#56376E" />
<rect x="78" y="85" width="4" height="10" fill="#D4637C" />
<rect x="62" y="87" width="2" height="16" fill="#281D41" />
<rect x="64" y="87" width="4" height="2" fill="#56376E" />
<rect x="76" y="87" width="2" height="6" fill="#D4637C" />
<rect x="88" y="87" width="2" height="2" fill="#56376E" />
<rect x="48" y="89" width="2" height="2" fill="#D4637C" />
<rect x="64" y="89" width="2" height="20" fill="#281D41" />
<rect x="66" y="89" width="4" height="2" fill="#56376E" />
<rect x="82" y="89" width="2" height="6" fill="#D4637C" />
<rect x="88" y="89" width="2" height="2" fill="#281D41" />
<rect x="92" y="89" width="2" height="6" fill="#DFDFAB" />
<rect x="46" y="91" width="2" height="2" fill="#D4637C" />
<rect x="48" y="91" width="2" height="4" fill="#DFDFAB" />
<rect x="66" y="91" width="4" height="4" fill="#281D41" />
<rect x="70" y="91" width="4" height="2" fill="#56376E" />
<rect x="88" y="91" width="2" height="8" fill="#56376E" />
<rect x="94" y="91" width="2" height="2" fill="#DFDFAB" />
<rect x="46" y="93" width="2" height="4" fill="#DFDFAB" />
<rect x="70" y="93" width="4" height="8" fill="#281D41" />
<rect x="74" y="93" width="4" height="2" fill="#56376E" />
<rect x="84" y="93" width="2" height="2" fill="#D4637C" />
<rect x="94" y="93" width="2" height="2" fill="#D4637C" />
<rect x="48" y="95" width="2" height="4" fill="#281D41" />
<rect x="56" y="95" width="2" height="2" fill="#D4637C" />
<rect x="58" y="95" width="2" height="8" fill="#281D41" />
<rect x="66" y="95" width="2" height="14" fill="#281D41" />
<rect x="68" y="95" width="2" height="6" fill="#56376E" />
<rect x="74" y="95" width="4" height="14" fill="#281D41" />
<rect x="78" y="95" width="2" height="4" fill="#56376E" />
<rect x="80" y="95" width="2" height="14" fill="#281D41" />
<rect x="82" y="95" width="2" height="2" fill="#56376E" />
<rect x="84" y="95" width="2" height="12" fill="#281D41" />
<rect x="92" y="95" width="2" height="2" fill="#D4637C" />
<rect x="94" y="95" width="2" height="8" fill="#281D41" />
<rect x="96" y="95" width="2" height="2" fill="#D4637C" />
<rect x="46" y="97" width="2" height="2" fill="#D4637C" />
<rect x="50" y="97" width="2" height="8" fill="#DFDFAB" />
<rect x="52" y="97" width="4" height="2" fill="#281D41" />
<rect x="56" y="97" width="2" height="12" fill="#DFDFAB" />
<rect x="82" y="97" width="2" height="14" fill="#281D41" />
<rect x="90" y="97" width="2" height="4" fill="#56376E" />
<rect x="92" y="97" width="2" height="8" fill="#281D41" />
<rect x="96" y="97" width="2" height="12" fill="#DFDFAB" />
<rect x="46" y="99" width="2" height="31" fill="#281D41" />
<rect x="48" y="99" width="2" height="4" fill="#DFDFAB" />
<rect x="52" y="99" width="2" height="4" fill="#281D41" />
<rect x="54" y="99" width="2" height="8" fill="#DFDFAB" />
<rect x="78" y="99" width="2" height="2" fill="#281D41" />
<rect x="88" y="99" width="2" height="8" fill="#281D41" />
<rect x="98" y="99" width="2" height="8" fill="#DFDFAB" />
<rect x="68" y="101" width="2" height="4" fill="#281D41" />
<rect x="70" y="101" width="2" height="4" fill="#56376E" />
<rect x="72" y="101" width="2" height="4" fill="#281D41" />
<rect x="78" y="101" width="2" height="2" fill="#56376E" />
<rect x="90" y="101" width="2" height="2" fill="#281D41" />
<rect x="48" y="103" width="2" height="2" fill="#D4637C" />
<rect x="52" y="103" width="2" height="4" fill="#D4637C" />
<rect x="58" y="103" width="2" height="2" fill="#D4637C" />
<rect x="62" y="103" width="2" height="2" fill="#D4637C" />
<rect x="78" y="103" width="2" height="8" fill="#281D41" />
<rect x="90" y="103" width="2" height="2" fill="#D4637C" />
<rect x="94" y="103" width="2" height="2" fill="#D4637C" />
<rect x="48" y="105" width="2" height="25" fill="#281D41" />
<rect x="50" y="105" width="2" height="2" fill="#D4637C" />
<rect x="58" y="105" width="2" height="2" fill="#DFDFAB" />
<rect x="62" y="105" width="2" height="6" fill="#DFDFAB" />
<rect x="68" y="105" width="2" height="2" fill="#D4637C" />
<rect x="70" y="105" width="2" height="2" fill="#281D41" />
<rect x="72" y="105" width="2" height="2" fill="#56376E" />
<rect x="86" y="105" width="2" height="2" fill="#D4637C" />
<rect x="90" y="105" width="2" height="6" fill="#DFDFAB" />
<rect x="92" y="105" width="2" height="2" fill="#D4637C" />
<rect x="94" y="105" width="2" height="2" fill="#DFDFAB" />
<rect x="50" y="107" width="4" height="23" fill="#281D41" />
<rect x="54" y="107" width="2" height="2" fill="#D4637C" />
<rect x="58" y="107" width="2" height="4" fill="#D4637C" />
<rect x="60" y="107" width="2" height="4" fill="#DFDFAB" />
<rect x="68" y="107" width="2" height="6" fill="#DFDFAB" />
<rect x="70" y="107" width="2" height="2" fill="#D4637C" />
<rect x="72" y="107" width="2" height="4" fill="#281D41" />
<rect x="84" y="107" width="2" height="2" fill="#D4637C" />
<rect x="86" y="107" width="2" height="6" fill="#DFDFAB" />
<rect x="88" y="107" width="2" height="8" fill="#D4637C" />
<rect x="92" y="107" width="2" height="4" fill="#DFDFAB" />
<rect x="94" y="107" width="2" height="4" fill="#D4637C" />
<rect x="98" y="107" width="2" height="2" fill="#D4637C" />
<rect x="54" y="109" width="2" height="2" fill="#281D41" />
<rect x="56" y="109" width="2" height="2" fill="#D4637C" />
<rect x="64" y="109" width="4" height="4" fill="#D4637C" />
<rect x="70" y="109" width="2" height="4" fill="#DFDFAB" />
<rect x="74" y="109" width="4" height="4" fill="#DFDFAB" />
<rect x="80" y="109" width="2" height="4" fill="#DFDFAB" />
<rect x="84" y="109" width="2" height="4" fill="#DFDFAB" />
<rect x="96" y="109" width="2" height="2" fill="#D4637C" />
<rect x="98" y="109" width="2" height="2" fill="#281D41" />
<rect x="54" y="111" width="2" height="2" fill="#56376E" />
<rect x="56" y="111" width="4" height="2" fill="#281D41" />
<rect x="60" y="111" width="4" height="2" fill="#D4637C" />
<rect x="72" y="111" width="2" height="4" fill="#D4637C" />
<rect x="78" y="111" width="2" height="4" fill="#D4637C" />
<rect x="82" y="111" width="2" height="4" fill="#D4637C" />
<rect x="90" y="111" width="4" height="2" fill="#D4637C" />
<rect x="94" y="111" width="4" height="2" fill="#281D41" />
<rect x="98" y="111" width="2" height="2" fill="#56376E" />
<rect x="54" y="113" width="2" height="17" fill="#281D41" />
<rect x="56" y="113" width="4" height="2" fill="#56376E" />
<rect x="60" y="113" width="8" height="2" fill="#281D41" />
<rect x="68" y="113" width="4" height="2" fill="#D4637C" />
<rect x="74" y="113" width="4" height="2" fill="#D4637C" />
<rect x="80" y="113" width="2" height="2" fill="#D4637C" />
<rect x="84" y="113" width="4" height="2" fill="#D4637C" />
<rect x="90" y="113" width="6" height="2" fill="#281D41" />
<rect x="96" y="113" width="2" height="2" fill="#56376E" />
<rect x="98" y="113" width="2" height="17" fill="#281D41" />
<rect x="56" y="115" width="4" height="15" fill="#281D41" />
<rect x="60" y="115" width="8" height="2" fill="#56376E" />
<rect x="68" y="115" width="22" height="2" fill="#281D41" />
<rect x="90" y="115" width="6" height="2" fill="#56376E" />
<rect x="96" y="115" width="2" height="15" fill="#281D41" />
<rect x="60" y="117" width="8" height="13" fill="#281D41" />
<rect x="68" y="117" width="24" height="2" fill="#56376E" />
<rect x="92" y="117" width="4" height="2" fill="#281D41" />
<rect x="68" y="119" width="24" height="4" fill="#281D41" />
<rect x="92" y="119" width="2" height="4" fill="#56376E" />
<rect x="94" y="119" width="2" height="11" fill="#281D41" />
<rect x="68" y="123" width="18" height="2" fill="#281D41" />
<rect x="86" y="123" width="4" height="4" fill="#56376E" />
<rect x="90" y="123" width="4" height="4" fill="#281D41" />
<rect x="68" y="125" width="12" height="5" fill="#281D41" />
<rect x="80" y="125" width="2" height="5" fill="#56376E" />
<rect x="82" y="125" width="4" height="5" fill="#281D41" />
<rect x="86" y="127" width="2" height="3" fill="#281D41" />
<rect x="88" y="127" width="2" height="3" fill="#56376E" />
<rect x="90" y="127" width="2" height="3" fill="#281D41" />
<rect x="92" y="127" width="2" height="2" fill="#56376E" />
<rect x="92" y="129" width="2" height="1" fill="#281D41" />
</svg>